<svg xmlns="http://www.w3.org/2000/svg" viewBox="0 0 24 24"><path fill="#303C42" d="M24 7c0-1.299-1.03-2-2-2-.762 0-1.412.284-2.003.664 0-.056.003-.108.003-.164C20 3.526 14.343 3 11 3s-9 .526-9 2.5c0 4.308.919 7.145 2.204 9.01C1.389 15.01 0 15.826 0 17c0 2.13 5.14 4 11 4s11-1.87 11-4c0-1.174-1.389-1.99-4.204-2.49.571-.828 1.069-1.85 1.446-3.107C22.736 9.903 24 8.105 24 7zm-4.04-.08C20.604 6.421 21.252 6 22 6c.372 0 1 .21 1 1 0 .449-.652 1.813-3.442 3.166.203-.96.34-2.04.402-3.247z"/><path fill="#FFECB3" d="M11 17c-2.854 0-7.544-1.383-7.96-10.226C4.83 7.712 8.54 8 11 8s6.17-.288 7.96-1.226C18.543 15.617 13.853 17 11 17z"/><path fill="#FFF" d="M4.472 7.296c-.543-.147-1.039-.316-1.431-.522C3.456 15.617 8.146 17 11 17c-2.304 0-6.051-1.345-6.528-9.704z" opacity=".2"/><path d="M17.528 7.296C17.05 15.655 13.304 17 11 17c2.854 0 7.544-1.383 7.96-10.226-.393.206-.889.375-1.432.522z" opacity=".1"/><path fill="#FFECB3" d="M11 4c4.987 0 7.896.99 8 1.5-.104.51-3.013 1.5-8 1.5-4.995 0-7.905-.992-8-1.497C3.095 4.992 6.005 4 11 4z"/><path d="M11 4c-4.995 0-7.905.993-8 1.502.033.174.405.405 1.072.633C5.015 5.63 7.424 5.031 11 5.031c3.574 0 5.983.597 6.927 1.103.665-.228 1.037-.459 1.073-.634-.104-.51-3.013-1.5-8-1.5z" opacity=".1"/><path fill="#FFE082" d="M21 17c0 1.03-3.895 3-10 3S1 18.03 1 17c0-.467 1.044-1.153 3.912-1.594a7.682 7.682 0 0 0 1.943 1.552c-.231.127-.355.296-.355.542 0 .35 0 1 4.5 1s4.5-.65 4.5-1c0-.246-.124-.415-.355-.542a7.682 7.682 0 0 0 1.943-1.552C19.956 15.846 21 16.533 21 17z"/><path fill="#FFF" d="M1.531 17.313c0-.456 1.007-1.12 3.723-1.561-.115-.112-.23-.224-.342-.346C2.044 15.846 1 16.533 1 17c0 .361.487.837 1.37 1.303-.542-.36-.839-.71-.839-.99z" opacity=".2"/><linearGradient id="a" x1="8.906" x2="17.366" y1="12.438" y2="20.897" gradientUnits="userSpaceOnUse"><stop offset="0" stop-opacity=".1"/><stop offset="1" stop-opacity="0"/></linearGradient><path fill="url(#a)" d="M17.088 15.406a7.682 7.682 0 0 1-1.943 1.552c.231.127.355.296.355.542 0 .35 0 1-4.5 1-2.928 0-3.946-.275-4.304-.564l1.962 1.961c.739.065 1.518.103 2.342.103 6.105 0 10-1.97 10-3 0-.467-1.044-1.153-3.912-1.594zm-11.663.513l1.22 1.219a.744.744 0 0 1 .21-.18 7.607 7.607 0 0 1-1.43-1.04z"/><linearGradient id="b" x1="1.205" x2="22.242" y1="6.981" y2="16.791" gradientUnits="userSpaceOnUse"><stop offset="0" stop-color="#FFF" stop-opacity=".2"/><stop offset="1" stop-color="#FFF" stop-opacity="0"/></linearGradient><path fill="url(#b)" d="M24 7c0-1.299-1.03-2-2-2-.762 0-1.412.284-2.003.664 0-.056.003-.108.003-.164C20 3.526 14.343 3 11 3s-9 .526-9 2.5c0 4.308.919 7.145 2.204 9.01C1.389 15.01 0 15.826 0 17c0 2.13 5.14 4 11 4s11-1.87 11-4c0-1.174-1.389-1.99-4.204-2.49.571-.828 1.069-1.85 1.446-3.107C22.736 9.903 24 8.105 24 7zm-4.04-.08C20.604 6.421 21.252 6 22 6c.372 0 1 .21 1 1 0 .449-.652 1.813-3.442 3.166.203-.96.34-2.04.402-3.247z"/></svg>